<mxfile host="65bd71144e">
    <diagram id="Q0k9t7Pwj9PrViIV9FbB" name="Página-1">
        <mxGraphModel dx="278" dy="512" grid="1" gridSize="10" guides="1" tooltips="1" connect="1" arrows="1" fold="1" page="1" pageScale="1" pageWidth="827" pageHeight="1169" math="0" shadow="0">
            <root>
                <mxCell id="0"/>
                <mxCell id="1" parent="0"/>
                <mxCell id="2" value="LEFT" style="ellipse;whiteSpace=wrap;html=1;fillColor=#dae8fc;strokeColor=#6c8ebf;opacity=50;" vertex="1" parent="1">
                    <mxGeometry x="40" y="120" width="120" height="80" as="geometry"/>
                </mxCell>
                <mxCell id="3" value="RIGTH" style="ellipse;whiteSpace=wrap;html=1;fillColor=#fff2cc;strokeColor=#d6b656;" vertex="1" parent="1">
                    <mxGeometry x="200" y="120" width="120" height="80" as="geometry"/>
                </mxCell>
                <mxCell id="4" value="&lt;h1&gt;LEFT E RIGHT&lt;/h1&gt;&lt;p&gt;Ao selecionar ums tabela para uma relação inicia (select * from TABELA) entenda essa tabela como equerda(left) A tabela a ser associada (JOIN TABELA), será a da direita (right)&lt;/p&gt;" style="text;html=1;strokeColor=none;fillColor=none;spacing=5;spacingTop=-20;whiteSpace=wrap;overflow=hidden;rounded=0;opacity=50;" vertex="1" parent="1">
                    <mxGeometry x="360" y="95" width="230" height="130" as="geometry"/>
                </mxCell>
                <mxCell id="5" value="LEFT" style="ellipse;whiteSpace=wrap;html=1;fillColor=#dae8fc;strokeColor=#6c8ebf;opacity=50;" vertex="1" parent="1">
                    <mxGeometry x="80" y="240" width="120" height="80" as="geometry"/>
                </mxCell>
                <mxCell id="6" value="RIGTH" style="ellipse;whiteSpace=wrap;html=1;opacity=50;" vertex="1" parent="1">
                    <mxGeometry x="164" y="240" width="120" height="80" as="geometry"/>
                </mxCell>
                <mxCell id="8" value="&lt;font color=&quot;#ff3333&quot; style=&quot;font-size: 8px; background-color: rgb(152, 204, 236);&quot;&gt;INNER&lt;/font&gt;" style="text;html=1;align=center;verticalAlign=middle;whiteSpace=wrap;rounded=0;opacity=50;" vertex="1" parent="1">
                    <mxGeometry x="154" y="265" width="60" height="30" as="geometry"/>
                </mxCell>
                <mxCell id="10" value="&lt;h1&gt;&lt;span style=&quot;background-color: initial;&quot;&gt;INNERJOIN&lt;/span&gt;&lt;/h1&gt;&lt;div&gt;&lt;span style=&quot;background-color: initial;&quot;&gt;&amp;nbsp;&lt;/span&gt;&lt;/div&gt;" style="text;html=1;strokeColor=none;fillColor=none;spacing=5;spacingTop=-20;whiteSpace=wrap;overflow=hidden;rounded=0;opacity=50;" vertex="1" parent="1">
                    <mxGeometry x="360" y="260" width="230" height="40" as="geometry"/>
                </mxCell>
                <mxCell id="12" value="LEFT" style="ellipse;whiteSpace=wrap;html=1;opacity=50;" vertex="1" parent="1">
                    <mxGeometry x="80" y="360" width="120" height="80" as="geometry"/>
                </mxCell>
                <mxCell id="13" value="RIGTH" style="ellipse;whiteSpace=wrap;html=1;fillColor=#fff2cc;strokeColor=#d6b656;opacity=50;" vertex="1" parent="1">
                    <mxGeometry x="164" y="360" width="120" height="80" as="geometry"/>
                </mxCell>
                <mxCell id="14" value="&lt;font color=&quot;#ff3333&quot; style=&quot;font-size: 8px; background-color: rgb(152, 204, 236);&quot;&gt;RIGTH&lt;/font&gt;" style="text;html=1;align=center;verticalAlign=middle;whiteSpace=wrap;rounded=0;opacity=50;" vertex="1" parent="1">
                    <mxGeometry x="154" y="385" width="60" height="30" as="geometry"/>
                </mxCell>
                <mxCell id="15" value="&lt;h1&gt;&lt;span style=&quot;background-color: initial;&quot;&gt;RIGTH JOIN&lt;/span&gt;&lt;/h1&gt;&lt;div&gt;&lt;span style=&quot;background-color: initial;&quot;&gt;&amp;nbsp;&lt;/span&gt;&lt;/div&gt;" style="text;html=1;strokeColor=none;fillColor=none;spacing=5;spacingTop=-20;whiteSpace=wrap;overflow=hidden;rounded=0;opacity=50;" vertex="1" parent="1">
                    <mxGeometry x="360" y="375" width="230" height="40" as="geometry"/>
                </mxCell>
                <mxCell id="16" value="LEFT" style="ellipse;whiteSpace=wrap;html=1;opacity=50;fillColor=#f8cecc;strokeColor=#b85450;" vertex="1" parent="1">
                    <mxGeometry x="82" y="480" width="120" height="80" as="geometry"/>
                </mxCell>
                <mxCell id="17" value="RIGTH" style="ellipse;whiteSpace=wrap;html=1;fillColor=#f8cecc;strokeColor=#b85450;opacity=50;" vertex="1" parent="1">
                    <mxGeometry x="166" y="480" width="120" height="80" as="geometry"/>
                </mxCell>
                <mxCell id="18" value="&lt;font color=&quot;#ff3333&quot; style=&quot;font-size: 8px; background-color: rgb(152, 204, 236);&quot;&gt;FULL&lt;/font&gt;" style="text;html=1;align=center;verticalAlign=middle;whiteSpace=wrap;rounded=0;opacity=50;" vertex="1" parent="1">
                    <mxGeometry x="156" y="505" width="60" height="30" as="geometry"/>
                </mxCell>
                <mxCell id="19" value="&lt;h1&gt;&lt;span style=&quot;background-color: initial;&quot;&gt;FULL JOIN&lt;/span&gt;&lt;/h1&gt;&lt;div&gt;&lt;span style=&quot;background-color: initial;&quot;&gt;&amp;nbsp;&lt;/span&gt;&lt;/div&gt;" style="text;html=1;strokeColor=none;fillColor=none;spacing=5;spacingTop=-20;whiteSpace=wrap;overflow=hidden;rounded=0;opacity=50;" vertex="1" parent="1">
                    <mxGeometry x="360" y="500" width="230" height="40" as="geometry"/>
                </mxCell>
            </root>
        </mxGraphModel>
    </diagram>
</mxfile>